<svg xmlns="http://www.w3.org/2000/svg" width="595" height="1314" viewBox="0 0 595 1314" font-family="Helvetica, Arial, sans-serif" font-size="14">
<rect width="595" height="1314" fill="#ffffff"/>
<defs><marker id="arrow" viewBox="0 0 10 10" refX="8.5" refY="5" markerWidth="7" markerHeight="7" orient="auto"><path d="M 0 1 L 9 5 L 0 9 z" fill="#44507a"/></marker></defs>
<path d="M 348.0 66.0 C 348.0 108.0, 348.0 108.0, 348.0 150.0" fill="none" stroke="#44507a" stroke-width="1.7" marker-end="url(#arrow)"/>
<path d="M 303.1 188.0 C 303.1 230.0, 264.6 230.0, 264.6 272.0" fill="none" stroke="#44507a" stroke-width="1.7" marker-end="url(#arrow)"/>
<path d="M 392.9 188.0 C 392.9 230.0, 431.5 230.0, 431.5 272.0" fill="none" stroke="#44507a" stroke-width="1.7" marker-end="url(#arrow)"/>
<path d="M 219.7 310.0 C 219.7 352.0, 219.7 352.0, 219.7 394.0" fill="none" stroke="#44507a" stroke-width="1.7" marker-end="url(#arrow)"/>
<path d="M 219.7 432.0 C 219.7 474.0, 219.7 474.0, 219.7 516.0" fill="none" stroke="#44507a" stroke-width="1.7" marker-end="url(#arrow)"/>
<path d="M 219.7 554.0 C 219.7 596.0, 219.7 596.0, 219.7 638.0" fill="none" stroke="#44507a" stroke-width="1.7" marker-end="url(#arrow)"/>
<path d="M 219.7 676.0 C 219.7 718.0, 219.7 718.0, 219.7 760.0" fill="none" stroke="#44507a" stroke-width="1.7" marker-end="url(#arrow)"/>
<path d="M 179.1 798.0 C 179.1 840.0, 144.4 840.0, 144.4 882.0" fill="none" stroke="#44507a" stroke-width="1.7" marker-end="url(#arrow)"/>
<path d="M 260.2 798.0 C 260.2 840.0, 295.0 840.0, 295.0 882.0" fill="none" stroke="#44507a" stroke-width="1.7" marker-end="url(#arrow)"/>
<path d="M 144.4 920.0 C 144.4 962.0, 179.1 962.0, 179.1 1004.0" fill="none" stroke="#44507a" stroke-width="1.7" marker-end="url(#arrow)"/>
<path d="M 295.0 920.0 C 295.0 962.0, 260.2 962.0, 260.2 1004.0" fill="none" stroke="#44507a" stroke-width="1.7" marker-end="url(#arrow)"/>
<path d="M 219.7 1042.0 C 219.7 1084.0, 219.7 1084.0, 219.7 1126.0" fill="none" stroke="#44507a" stroke-width="1.7" marker-end="url(#arrow)"/>
<path d="M 219.7 1164.0 C 219.7 1206.0, 219.7 1206.0, 219.7 1248.0" fill="none" stroke="#44507a" stroke-width="1.7" marker-end="url(#arrow)"/>
<rect x="255.5" y="28.0" width="185.1" height="38.0" rx="3.0" fill="#3b82f6" stroke="#1d4ed8" stroke-width="1.6"/>
<text x="348.0" y="47.0" dy="0.33em" text-anchor="middle" fill="#fff">01 Buat Order → pending</text>
<rect x="258.1" y="150.0" width="179.9" height="38.0" rx="3.0" fill="#f59e0b" stroke="#b45309" stroke-width="1.6"/>
<text x="348.0" y="169.0" dy="0.33em" text-anchor="middle" fill="#1a1204">03 Owner Review Order</text>
<rect x="115.8" y="272.0" width="207.7" height="38.0" rx="3.0" fill="#f59e0b" stroke="#b45309" stroke-width="1.6"/>
<text x="219.7" y="291.0" dy="0.33em" text-anchor="middle" fill="#1a1204">04 Terima Order → accepted</text>
<rect x="385.5" y="272.0" width="181.7" height="38.0" rx="3.0" fill="#f59e0b" stroke="#b45309" stroke-width="1.6"/>
<text x="476.4" y="291.0" dy="0.33em" text-anchor="middle" fill="#1a1204">Tolak Order → cancelled</text>
<rect x="147.9" y="394.0" width="143.5" height="38.0" rx="3.0" fill="#f59e0b" stroke="#b45309" stroke-width="1.6"/>
<text x="219.7" y="413.0" dy="0.33em" text-anchor="middle" fill="#1a1204">05 Timbang Final</text>
<rect x="100.7" y="516.0" width="237.9" height="38.0" rx="3.0" fill="#f59e0b" stroke="#b45309" stroke-width="1.6"/>
<text x="219.7" y="535.0" dy="0.33em" text-anchor="middle" fill="#1a1204">06 Harga Final → price_proposed</text>
<rect x="124.1" y="638.0" width="191.1" height="38.0" rx="3.0" fill="#3b82f6" stroke="#1d4ed8" stroke-width="1.6"/>
<text x="219.7" y="657.0" dy="0.33em" text-anchor="middle" fill="#fff">08 Pilih Metode + Charge</text>
<rect x="109.3" y="760.0" width="220.7" height="38.0" rx="3.0" fill="#3b82f6" stroke="#1d4ed8" stroke-width="1.6"/>
<text x="219.7" y="779.0" dy="0.33em" text-anchor="middle" fill="#fff">09 Setujui Harga → processing</text>
<rect x="28.0" y="882.0" width="151.7" height="38.0" rx="3.0" fill="#f59e0b" stroke="#b45309" stroke-width="1.6"/>
<text x="103.9" y="901.0" dy="0.33em" text-anchor="middle" fill="#1a1204">10 Konfirmasi COD</text>
<rect x="241.7" y="882.0" width="187.6" height="38.0" rx="3.0" fill="#3b82f6" stroke="#1d4ed8" stroke-width="1.6"/>
<text x="335.5" y="901.0" dy="0.33em" text-anchor="middle" fill="#fff">Bayar QR/VA di gateway</text>
<rect x="105.2" y="1004.0" width="228.9" height="38.0" rx="3.0" fill="#f59e0b" stroke="#b45309" stroke-width="1.6"/>
<text x="219.7" y="1023.0" dy="0.33em" text-anchor="middle" fill="#1a1204">11 Item Selesai → ready_pickup</text>
<rect x="95.5" y="1126.0" width="248.3" height="38.0" rx="3.0" fill="#3b82f6" stroke="#1d4ed8" stroke-width="1.6"/>
<text x="219.7" y="1145.0" dy="0.33em" text-anchor="middle" fill="#fff">12 Konfirmasi Terima → completed</text>
<rect x="132.1" y="1248.0" width="175.2" height="38.0" rx="3.0" fill="#3b82f6" stroke="#1d4ed8" stroke-width="1.6"/>
<text x="219.7" y="1267.0" dy="0.33em" text-anchor="middle" fill="#fff">13 Timeline (verifikasi)</text>
<rect x="213.2" y="220.0" width="141.4" height="20" rx="4" fill="#ffffff" stroke="#d5d9ec"/>
<text x="283.9" y="230.0" dy="0.33em" text-anchor="middle" fill="#232840">keputusan == terima</text>
<rect x="392.2" y="220.0" width="40.0" height="20" rx="4" fill="#ffffff" stroke="#d5d9ec"/>
<text x="412.2" y="230.0" dy="0.33em" text-anchor="middle" fill="#232840">else</text>
<rect x="99.0" y="830.0" width="125.5" height="20" rx="4" fill="#ffffff" stroke="#d5d9ec"/>
<text x="161.8" y="840.0" dy="0.33em" text-anchor="middle" fill="#232840">pay_mode == cod</text>
<rect x="257.6" y="830.0" width="40.0" height="20" rx="4" fill="#ffffff" stroke="#d5d9ec"/>
<text x="277.6" y="840.0" dy="0.33em" text-anchor="middle" fill="#232840">else</text>
</svg>
